<svg xmlns="http://www.w3.org/2000/svg" width="64" height="64" viewBox="0 0 64 64" role="img" aria-label="Cab As 0_itme">
  <defs>
    <linearGradient id="g" x1="10" y1="8" x2="54" y2="56" gradientUnits="userSpaceOnUse">
      <stop stop-color="#BFE6FF"/>
      <stop offset="0.45" stop-color="#2AA8D8"/>
      <stop offset="1" stop-color="#0B3B5A"/>
    </linearGradient>
  </defs>
  <rect x="6" y="6" width="52" height="52" rx="16" fill="url(#g)"/>
  <path d="M24 37c0-7 5-13 12-13 6 0 10 4 10 10 0 6-4 10-10 10-7 0-12-3-12-7Z" fill="#fff" opacity="0.75"/>
  <path d="M29 36c0-4 3-8 8-8 4 0 6 3 6 6 0 4-2 6-6 6-5 0-8-2-8-4Z" fill="#fff" opacity="0.95"/>
</svg>
